<svg width="855" height="306" viewBox="0 0 855 306" fill="none" xmlns="http://www.w3.org/2000/svg">
<path d="M19.7916 40.7326C20.474 40.728 21.1564 40.7235 21.8595 40.7188C24.1455 40.7062 26.4313 40.7078 28.7173 40.7095C30.3568 40.7035 31.9963 40.6967 33.6358 40.6891C38.0907 40.6714 42.5455 40.6668 47.0003 40.6655C49.7858 40.6641 52.5712 40.6598 55.3567 40.6545C65.0811 40.636 74.8054 40.6278 84.5298 40.6294C93.582 40.6306 102.634 40.6095 111.686 40.5779C119.466 40.5517 127.245 40.541 135.024 40.5423C139.667 40.5428 144.309 40.5372 148.952 40.516C153.324 40.4965 157.695 40.4965 162.067 40.511C163.665 40.5131 165.264 40.5084 166.863 40.4963C183.91 40.3752 183.91 40.3752 191 45C192.907 47.2882 193.812 49.211 195 52C195.33 52.66 195.66 53.32 196 54C196.102 56.5559 196.143 59.0847 196.14 61.6411C196.143 62.4389 196.146 63.2368 196.149 64.0588C196.158 66.7472 196.16 69.4356 196.161 72.124C196.166 74.0456 196.171 75.9672 196.176 77.8887C196.189 83.1203 196.196 88.3518 196.2 93.5833C196.203 96.8501 196.207 100.117 196.212 103.384C196.225 113.6 196.235 123.816 196.239 134.033C196.243 145.835 196.261 157.637 196.29 169.438C196.311 178.554 196.322 187.67 196.323 196.786C196.324 202.234 196.33 207.681 196.348 213.128C196.364 218.253 196.366 223.378 196.358 228.503C196.357 230.384 196.361 232.265 196.371 234.146C196.384 236.715 196.378 239.282 196.367 241.851C196.38 242.967 196.38 242.967 196.392 244.105C196.332 250.368 194.722 254.278 190.312 258.688C182.072 264.899 173.131 264.441 163.288 264.42C161.697 264.427 160.106 264.436 158.515 264.446C154.211 264.468 149.908 264.471 145.604 264.469C142.003 264.469 138.402 264.477 134.802 264.486C126.303 264.505 117.804 264.508 109.305 264.501C100.554 264.494 91.8047 264.517 83.0546 264.554C75.5257 264.585 67.9969 264.596 60.4679 264.592C55.9784 264.59 51.4892 264.596 46.9997 264.62C42.7756 264.643 38.5522 264.641 34.3282 264.62C32.7843 264.617 31.2404 264.622 29.6966 264.636C12.858 264.782 12.858 264.782 5.99999 259C-1.03647 251.143 0.308709 239.914 0.384754 230.075C0.381249 228.164 0.375586 226.253 0.367939 224.342C0.353742 219.174 0.370701 214.008 0.394224 208.84C0.41439 203.424 0.408451 198.007 0.406116 192.591C0.40617 183.499 0.425885 174.408 0.457996 165.317C0.494919 154.813 0.503666 144.309 0.496698 133.804C0.49039 123.686 0.501152 113.568 0.520664 103.45C0.528829 99.1494 0.531549 94.8485 0.529972 90.5477C0.529092 85.484 0.543337 80.4207 0.569198 75.3571C0.576351 73.5008 0.578448 71.6444 0.575081 69.7881C0.571356 67.2509 0.586146 64.7145 0.605579 62.1774C0.600251 61.4459 0.594923 60.7144 0.589434 59.9607C0.656655 54.8613 1.68689 51.4529 3.99999 47C9.06389 42.1958 12.851 40.7516 19.7916 40.7326Z" fill="#FCFCFC"/>
<path d="M51.4745 0.725835C52.1228 0.720598 52.7712 0.715362 53.4391 0.709966C55.6099 0.694974 57.7804 0.694261 59.9512 0.693593C61.5087 0.685971 63.0661 0.677543 64.6236 0.66837C68.8554 0.646417 73.0872 0.637624 77.3191 0.632544C79.9665 0.628899 82.614 0.622658 85.2614 0.615543C94.5083 0.591038 103.755 0.577995 113.002 0.574453C121.602 0.570824 130.202 0.540984 138.802 0.499048C146.197 0.464258 153.593 0.448903 160.988 0.448206C165.4 0.447416 169.811 0.43879 174.222 0.410209C178.379 0.383881 182.535 0.381904 186.692 0.397864C188.209 0.399668 189.726 0.39309 191.243 0.377046C205.647 0.234144 216.504 3.93516 227 14C233.477 20.9376 238.114 30.4907 238.131 40.1087C238.135 40.9233 238.139 41.738 238.143 42.5774C238.142 43.4668 238.141 44.3563 238.14 45.2728C238.143 46.222 238.146 47.1712 238.149 48.1492C238.158 51.3381 238.16 54.5269 238.161 57.7158C238.166 59.999 238.171 62.2821 238.176 64.5653C238.189 70.774 238.196 76.9828 238.2 83.1916C238.203 87.0699 238.207 90.9481 238.212 94.8264C238.224 105.568 238.234 116.31 238.238 127.052C238.238 128.083 238.238 128.083 238.238 129.135C238.238 129.824 238.239 130.513 238.239 131.223C238.239 132.619 238.24 134.015 238.24 135.411C238.241 136.449 238.241 136.449 238.241 137.509C238.245 148.726 238.262 159.943 238.286 171.16C238.309 182.682 238.322 194.203 238.323 205.725C238.324 212.192 238.33 218.659 238.348 225.126C238.364 231.209 238.366 237.293 238.358 243.377C238.357 245.608 238.361 247.84 238.371 250.072C238.384 253.121 238.378 256.17 238.368 259.219C238.38 260.54 238.38 260.54 238.392 261.888C238.308 272.451 233.408 284.386 226 292C212.623 303.625 200.387 305.301 182.957 305.306C181.474 305.314 179.991 305.322 178.508 305.332C174.512 305.353 170.517 305.362 166.521 305.367C164.019 305.371 161.516 305.377 159.014 305.384C150.269 305.409 141.523 305.422 132.778 305.426C124.65 305.429 116.522 305.459 108.394 305.501C101.391 305.536 94.3891 305.551 87.3866 305.552C83.2145 305.553 79.0429 305.561 74.8709 305.59C70.948 305.616 67.0258 305.618 63.1029 305.602C61.6703 305.6 60.2376 305.607 58.8051 305.623C48.7645 305.728 41.4481 304.389 33.5274 298.008C29.8695 293.676 28 290.754 28 285C29 284 29 284 31.682 283.875C32.8897 283.875 34.0973 283.875 35.3415 283.875C36.0118 283.874 36.6821 283.873 37.3726 283.871C39.6356 283.867 41.8985 283.871 44.1614 283.874C45.7775 283.873 47.3937 283.871 49.0098 283.868C52.5004 283.864 55.9909 283.862 59.4815 283.862C65.0087 283.861 70.5359 283.848 76.0631 283.832C77.4618 283.828 77.4618 283.828 78.8888 283.825C80.7965 283.819 82.7041 283.814 84.6117 283.809C97.4834 283.774 110.355 283.747 123.227 283.749C131.902 283.751 140.577 283.735 149.252 283.699C153.841 283.68 158.43 283.671 163.019 283.683C167.346 283.695 171.672 283.683 175.998 283.654C177.578 283.647 179.159 283.649 180.739 283.66C190.523 283.723 201.378 283.506 208.822 276.215C213.658 270.081 214.296 263.335 214.274 255.797C214.279 254.88 214.285 253.962 214.29 253.017C214.305 249.947 214.306 246.877 214.306 243.807C214.314 241.604 214.322 239.401 214.332 237.198C214.354 231.217 214.362 225.235 214.367 219.254C214.371 215.516 214.377 211.778 214.384 208.04C214.408 195.67 214.422 183.3 214.425 170.931C214.425 170.264 214.425 169.598 214.426 168.911C214.426 168.244 214.426 167.577 214.426 166.89C214.43 156.081 214.457 145.272 214.494 134.463C214.532 123.354 214.551 112.245 214.552 101.135C214.553 94.9024 214.561 88.6699 214.59 82.4373C214.616 76.5742 214.618 70.7116 214.602 64.8485C214.6 62.6995 214.607 60.5505 214.623 58.4016C214.643 55.4617 214.633 52.5236 214.615 49.5838C214.635 48.316 214.635 48.316 214.655 47.0227C214.547 39.3058 211.538 33.7152 206.313 28.125C197.165 22.2568 187.143 22.5558 176.626 22.5676C174.99 22.5586 173.353 22.5483 171.716 22.5367C167.299 22.5093 162.883 22.4999 158.466 22.4939C153.84 22.4845 149.214 22.4583 144.589 22.4339C135.841 22.3903 127.094 22.3617 118.346 22.3386C108.383 22.3115 98.4188 22.2675 88.455 22.2223C67.9701 22.1295 47.4851 22.0578 27 22C26.8152 14.274 26.8152 14.274 30.0625 10.8125C33.4154 7.30357 36.6569 5.13058 41 2.99999C41.5948 2.64213 42.1896 2.28427 42.8024 1.91556C45.7722 0.678284 48.259 0.738719 51.4745 0.725835Z" fill="#FAFAFA"/>
<path d="M677.539 112.613C679.86 113.921 681.923 115.337 684 117C684.99 114.69 685.98 112.38 687 110C690.646 109.971 694.292 109.953 697.938 109.938C698.978 109.929 700.019 109.921 701.092 109.912C702.081 109.909 703.071 109.906 704.09 109.902C705.465 109.894 705.465 109.894 706.867 109.886C709 110 709 110 710 111C710.111 113.789 710.157 116.554 710.161 119.344C710.169 120.656 710.169 120.656 710.176 121.994C710.191 124.901 710.198 127.808 710.203 130.715C710.209 132.726 710.215 134.738 710.22 136.75C710.231 140.972 710.237 145.195 710.24 149.418C710.246 154.84 710.27 160.262 710.298 165.684C710.317 169.84 710.322 173.996 710.324 178.153C710.327 180.152 710.335 182.152 710.348 184.151C710.365 186.944 710.363 189.735 710.356 192.527C710.366 193.36 710.375 194.193 710.384 195.051C710.368 197.349 710.368 197.349 710 201C706.816 203.123 706.015 203.249 702.367 203.23C701.479 203.229 700.591 203.227 699.676 203.225C698.752 203.212 697.827 203.2 696.875 203.188C695.943 203.187 695.011 203.186 694.051 203.186C687.14 203.14 687.14 203.14 686 202C685.859 199.329 685.958 196.676 686 194C685.443 194.471 684.886 194.941 684.313 195.426C673.136 204.544 661.195 206.211 647 205C638.172 203.417 631.475 200.185 625 194C624.172 193.215 624.172 193.215 623.328 192.414C612.461 180.93 610.328 166.645 610.621 151.551C611.12 141.019 614.847 131.796 622 124C622.895 122.969 622.895 122.969 623.809 121.918C628.573 116.751 633.552 113.714 640 111C640.708 110.635 641.415 110.27 642.145 109.895C653.164 106.442 667.147 107.974 677.539 112.613Z" fill="#F9FAFA"/>
<path d="M526.513 77.7095C527.669 77.6967 528.825 77.684 530.016 77.6708C531.274 77.6686 532.532 77.6664 533.828 77.6641C535.124 77.6574 536.42 77.6507 537.755 77.6439C540.509 77.6319 543.263 77.6282 546.017 77.6294C549.506 77.6296 552.995 77.6025 556.485 77.5679C559.849 77.5399 563.214 77.5414 566.578 77.5391C567.812 77.5247 569.046 77.5103 570.317 77.4955C581.208 77.5517 593.479 79.0177 601.844 86.6914C609.631 95.4887 613.186 103.993 613.313 115.625C613.356 116.922 613.356 116.922 613.4 118.246C613.498 128.297 609.072 136.188 603 144C595.034 151.966 585.825 154.967 574.787 155.114C573.306 155.113 571.825 155.108 570.344 155.098C569.556 155.096 568.768 155.095 567.957 155.093C565.471 155.088 562.986 155.075 560.5 155.062C558.802 155.057 557.104 155.053 555.406 155.049C551.271 155.038 547.135 155.021 543 155C543.005 155.557 543.009 156.114 543.014 156.688C543.058 162.479 543.088 168.27 543.11 174.061C543.12 176.223 543.134 178.386 543.151 180.548C543.175 183.653 543.187 186.758 543.195 189.863C543.206 190.832 543.216 191.801 543.227 192.799C543.227 193.7 543.227 194.601 543.227 195.529C543.232 196.321 543.236 197.114 543.241 197.931C543 200 543 200 541 203C538.969 203.356 538.969 203.356 536.5 203.328C535.613 203.323 534.726 203.318 533.813 203.312C532.884 203.292 531.956 203.271 531 203.25C530.072 203.245 529.144 203.24 528.188 203.234C521.309 203.154 521.309 203.154 519 202C518.953 186.128 518.918 170.255 518.896 154.383C518.886 147.014 518.872 139.644 518.849 132.275C518.829 125.853 518.816 119.432 518.812 113.01C518.809 109.609 518.803 106.207 518.789 102.805C518.774 99.0123 518.772 95.2194 518.773 91.4263C518.766 90.2927 518.759 89.1591 518.751 87.9911C518.754 86.9618 518.757 85.9326 518.76 84.8721C518.758 83.9743 518.756 83.0764 518.754 82.1514C519.302 77.3629 522.488 77.7396 526.513 77.7095Z" fill="#F9F9F9"/>
<path d="M356.76 77.7095C357.969 77.6967 359.178 77.684 360.423 77.6708C361.737 77.6686 363.052 77.6664 364.406 77.6641C365.77 77.6576 367.133 77.6509 368.496 77.6439C371.361 77.6319 374.226 77.6282 377.091 77.6294C380.738 77.6296 384.384 77.6024 388.031 77.5679C390.852 77.5454 393.673 77.5416 396.494 77.5426C398.484 77.5391 400.475 77.5175 402.465 77.4955C413.749 77.5518 423.36 80.4982 432 88C440.931 98.3351 443.015 108.221 442.605 121.57C441.853 131.335 437.221 140.425 430.125 147.188C421.27 153.842 413.071 156.167 402.199 156.098C401.363 156.096 400.526 156.095 399.665 156.093C397.006 156.088 394.347 156.075 391.688 156.062C389.88 156.057 388.072 156.053 386.264 156.049C381.842 156.038 377.421 156.021 373 156C373.01 157.282 373.021 158.563 373.032 159.884C373.068 164.64 373.091 169.396 373.11 174.152C373.12 176.21 373.134 178.268 373.151 180.327C373.175 183.286 373.187 186.244 373.195 189.203C373.206 190.123 373.216 191.043 373.227 191.991C373.227 192.851 373.227 193.712 373.227 194.599C373.232 195.354 373.236 196.109 373.241 196.887C372.967 199.288 372.192 200.914 371 203C367.708 203.058 364.417 203.094 361.125 203.125C360.188 203.142 359.251 203.159 358.285 203.176C357.389 203.182 356.493 203.189 355.57 203.195C354.743 203.206 353.915 203.216 353.063 203.227C351 203 351 203 349 201C348.748 198.87 348.748 198.87 348.746 196.179C348.74 195.161 348.735 194.143 348.729 193.095C348.733 191.973 348.737 190.852 348.741 189.697C348.738 188.52 348.734 187.343 348.731 186.13C348.723 182.896 348.725 179.663 348.731 176.43C348.736 173.05 348.732 169.67 348.729 166.291C348.725 160.614 348.73 154.938 348.739 149.262C348.75 142.695 348.747 136.127 348.736 129.559C348.727 123.926 348.725 118.293 348.731 112.66C348.734 109.293 348.734 105.926 348.727 102.559C348.722 98.8068 348.73 95.0549 348.741 91.3027C348.737 90.1816 348.733 89.0605 348.729 87.9054C348.735 86.8875 348.74 85.8695 348.746 84.8207C348.747 83.9328 348.748 83.045 348.748 82.1302C349.324 77.2597 352.69 77.7386 356.76 77.7095Z" fill="#F9F9F9"/>
<path d="M59.9587 93.6936C61.1573 93.6811 61.1573 93.6811 62.38 93.6684C65.0229 93.6443 67.6656 93.6355 70.3086 93.6289C72.155 93.6199 74.0015 93.6108 75.8479 93.6015C79.7241 93.585 83.6001 93.5773 87.4763 93.5744C92.4122 93.5691 97.3472 93.5315 102.283 93.4857C106.102 93.4558 109.92 93.4487 113.739 93.4477C115.557 93.4436 117.374 93.4312 119.191 93.4102C133.939 93.2533 145.721 94.7127 156.836 105.52C165.731 115.715 166.693 124.795 166.179 137.792C165.824 142.167 164.444 145.414 162 149C161.576 149.679 161.152 150.359 160.715 151.059C155.989 158.023 149.915 163.602 141.602 165.581C135.872 166.504 130.045 166.343 124.254 166.379C122.833 166.395 121.412 166.412 119.991 166.43C116.274 166.476 112.558 166.511 108.841 166.543C102.868 166.595 96.8956 166.659 90.923 166.731C88.8373 166.754 86.7517 166.77 84.6659 166.786C82.7828 166.806 82.7828 166.806 80.8616 166.826C79.751 166.836 78.6404 166.845 77.4961 166.855C75.0594 166.719 75.0594 166.719 74 168C73.8914 169.491 73.8442 170.986 73.8242 172.48C73.8004 173.398 73.7765 174.315 73.752 175.26C73.7094 177.192 73.6779 179.124 73.6582 181.057C73.484 186.861 72.9259 190.423 69 195C64.679 198.91 61.0634 199.696 55.4024 199.449C51.3204 198.686 49.7651 197.102 47 194C44.1868 189.343 43.6156 185.853 43.6016 180.441C43.5987 179.734 43.5958 179.027 43.5929 178.298C43.5908 176.809 43.5963 175.321 43.6089 173.833C43.6249 171.572 43.609 169.313 43.5899 167.053C43.5918 165.599 43.5957 164.145 43.6016 162.691C43.605 161.384 43.6083 160.076 43.6118 158.729C44.1445 153.612 45.5905 149.738 48.875 145.687C53.4476 142.056 57.6401 141.745 63.3731 141.713C64.0973 141.706 64.8215 141.699 65.5676 141.692C67.1336 141.679 68.6995 141.67 70.2655 141.664C72.7458 141.656 75.2257 141.636 77.7059 141.612C83.8642 141.556 90.0226 141.52 96.181 141.484C101.39 141.453 106.598 141.414 111.807 141.364C114.247 141.344 116.687 141.336 119.127 141.328C120.627 141.315 122.127 141.301 123.627 141.287C124.933 141.28 126.239 141.273 127.585 141.265C131.935 140.927 134.849 140.271 137.813 137C139.532 132.657 139.855 128.603 139 124C135.867 120.619 133.318 119.053 128.725 118.869C127.294 118.86 125.863 118.857 124.433 118.858C123.652 118.855 122.871 118.851 122.067 118.848C120.368 118.84 118.67 118.835 116.971 118.831C114.281 118.824 111.591 118.808 108.9 118.79C101.25 118.737 93.6001 118.69 85.9497 118.674C81.2723 118.664 76.5954 118.635 71.9181 118.593C70.1368 118.58 68.3555 118.575 66.5741 118.578C64.0772 118.58 61.5817 118.558 59.085 118.53C57.9859 118.54 57.9859 118.54 56.8647 118.55C51.7973 118.458 48.914 117.172 45 114C42.2928 110.037 42.1802 105.637 43 101C47.8171 94.711 52.3525 93.7003 59.9587 93.6936Z" fill="#008DDA"/>
<path d="M718 110C725.59 110 733.18 110 741 110C745.363 118.58 749.604 126.992 753 136C753.972 138.503 754.949 141.003 755.937 143.5C756.32 144.467 756.32 144.467 756.71 145.453C758.565 150.073 760.672 154.495 762.973 158.906C764.255 161.52 765.081 164.242 766 167C766.99 167.495 766.99 167.495 768 168C768.073 167.225 768.147 166.451 768.223 165.652C769.291 160.633 771.341 156.231 773.437 151.562C774.345 149.513 775.253 147.464 776.16 145.414C776.628 144.361 777.096 143.308 777.579 142.224C778.991 139.021 780.373 135.806 781.746 132.586C782.187 131.555 782.628 130.525 783.082 129.463C783.925 127.49 784.764 125.516 785.599 123.539C786.69 121.004 787.832 118.501 789 116C789.802 114.206 789.802 114.206 790.621 112.375C793.393 109.607 794.166 109.591 797.949 109.379C799.863 109.409 801.776 109.472 803.687 109.562C804.663 109.581 805.638 109.6 806.643 109.619C813.803 109.804 813.803 109.804 815 111C815.456 115.981 814.322 119.109 812.113 123.543C811.814 124.152 811.515 124.761 811.208 125.389C810.254 127.327 809.284 129.257 808.312 131.188C807.366 133.094 806.424 135.002 805.481 136.911C804.859 138.169 804.236 139.427 803.611 140.685C801.433 145.081 799.372 149.516 797.365 153.991C795.652 157.767 793.887 161.517 792.117 165.266C791.773 165.995 791.429 166.724 791.074 167.476C789.647 170.501 788.217 173.526 786.788 176.55C785.73 178.788 784.673 181.027 783.617 183.266C783.298 183.939 782.98 184.612 782.651 185.305C780.673 189.5 778.809 193.729 777 198C776.378 199.376 775.753 200.752 775.125 202.125C773.439 205.888 771.954 209.704 770.5 213.562C768.599 218.558 766.483 223.275 764 228C763.102 229.812 762.206 231.624 761.312 233.438C759.123 237.877 759.123 237.877 758 239C756.438 239.087 754.873 239.107 753.309 239.098C752.364 239.094 751.42 239.091 750.447 239.088C749.454 239.08 748.461 239.071 747.437 239.062C746.44 239.058 745.443 239.053 744.416 239.049C741.944 239.037 739.472 239.021 737 239C735.781 234.422 736.553 232.447 738.832 228.285C740.081 225.841 740.98 223.407 741.875 220.812C743.782 215.379 746.144 210.232 748.633 205.043C751.338 199.022 753.368 193.759 751.009 187.278C750.551 186.364 750.093 185.45 749.621 184.508C749.115 183.481 748.609 182.453 748.088 181.395C747.543 180.316 746.999 179.237 746.437 178.125C745.329 175.877 744.222 173.629 743.117 171.379C742.579 170.287 742.041 169.196 741.487 168.071C739.023 162.982 736.799 157.804 734.598 152.598C732.117 147.012 729.314 141.593 726.552 136.143C725.061 133.186 723.592 130.219 722.125 127.25C721.614 126.248 721.104 125.247 720.578 124.215C720.101 123.242 719.624 122.268 719.133 121.266C718.699 120.397 718.264 119.529 717.817 118.634C717 116 717 116 718 110Z" fill="#F9F9F9"/>
<path d="M257.012 51.4922C262.129 52.799 265.625 56.0625 269 60C269.812 62.8125 269.812 62.8125 270 65C270.66 65 271.32 65 272 65C272.07 78.2913 272.123 91.5826 272.155 104.874C272.171 111.046 272.192 117.218 272.226 123.39C272.259 129.349 272.277 135.307 272.285 141.266C272.29 143.537 272.301 145.808 272.317 148.079C272.339 151.265 272.342 154.451 272.341 157.637C272.351 158.571 272.362 159.505 272.373 160.468C272.334 168.797 270.478 175.042 264.687 181.312C263.949 182.134 263.21 182.955 262.449 183.801C259.045 186.858 255.785 188.841 251.187 189.25C249 189 249 189 248 188C247.897 186.273 247.865 184.542 247.86 182.813C247.854 181.688 247.848 180.564 247.842 179.405C247.841 178.16 247.84 176.916 247.839 175.633C247.834 174.331 247.829 173.029 247.824 171.687C247.811 168.104 247.804 164.522 247.8 160.939C247.797 158.702 247.793 156.466 247.788 154.23C247.775 147.238 247.765 140.246 247.761 133.254C247.757 125.173 247.739 117.092 247.71 109.011C247.688 102.771 247.678 96.5316 247.677 90.292C247.676 86.5622 247.67 82.8326 247.652 79.1029C247.633 74.9436 247.637 70.7848 247.644 66.6255C247.634 65.3848 247.625 64.1442 247.616 62.866C247.621 61.7358 247.627 60.6056 247.632 59.4412C247.631 58.4571 247.63 57.473 247.628 56.4591C248 54 248 54 249.281 52.1521C251.836 50.44 254.093 50.9906 257.012 51.4922Z" fill="#14B9D2"/>
<path d="M676.895 135.254C681.909 139.128 685.325 143.936 686.382 150.3C686.535 152.713 686.547 155.083 686.5 157.5C686.516 158.303 686.531 159.106 686.547 159.934C686.503 166.664 684.68 171.821 680.324 176.988C679.784 177.425 679.244 177.862 678.688 178.312C678.155 178.762 677.623 179.212 677.074 179.676C671.267 183.383 666.35 184.56 659.563 184.5C658.437 184.491 658.437 184.491 657.288 184.483C651.377 184.291 647.311 183.246 643 179C642.441 178.469 641.881 177.938 641.305 177.391C634.66 170.392 633.286 163.127 633.531 153.609C634.432 146.676 637.024 140.688 642.262 135.957C652.356 128.933 666.526 128.391 676.895 135.254Z" fill="#008DDA"/>
<path d="M373 101C378.28 100.917 383.56 100.835 389 100.75C391.475 100.695 391.475 100.695 394 100.64C402.994 100.524 409.227 101.084 416.438 107C419.749 111.238 419.603 116.838 419 122C417.439 127.002 414.213 130.31 409.791 132.979C403.425 135.308 396.191 134.495 389.5 134.312C387.898 134.287 386.297 134.265 384.695 134.244C380.795 134.194 376.9 134.096 373 134C373 123.11 373 112.22 373 101Z" fill="#008DDA"/>
<path d="M543 101C547.983 100.862 552.958 100.742 557.941 100.67C559.633 100.64 561.325 100.6 563.016 100.547C579.986 100.037 579.986 100.037 585.705 105.408C589.827 110.476 589.57 114.693 589 121C587.238 126.285 584.422 128.841 580 132C576.249 133.379 572.332 133.127 568.391 133.098C567.664 133.096 566.937 133.095 566.188 133.093C563.875 133.088 561.563 133.075 559.25 133.062C557.678 133.057 556.107 133.053 554.535 133.049C550.69 133.039 546.845 133.019 543 133C543 122.44 543 111.88 543 101Z" fill="#008DDA"/>
<path d="M459.234 133.741C460.109 133.735 460.983 133.729 461.884 133.722C463.303 133.728 463.303 133.728 464.75 133.734C465.719 133.732 466.688 133.731 467.687 133.729C469.738 133.727 471.789 133.731 473.84 133.739C476.987 133.75 480.134 133.739 483.281 133.727C485.271 133.728 487.26 133.73 489.25 133.734C490.196 133.73 491.142 133.726 492.116 133.722C492.991 133.728 493.865 133.735 494.766 133.741C495.922 133.744 495.922 133.744 497.103 133.746C499 134 499 134 501 136C501.259 137.939 501.259 137.939 501.266 140.281C501.269 141.544 501.269 141.544 501.273 142.832C501.266 143.712 501.258 144.593 501.25 145.5C501.262 146.821 501.262 146.821 501.273 148.168C501.271 149.01 501.268 149.851 501.266 150.719C501.263 151.492 501.261 152.264 501.259 153.061C501 155 501 155 499 157C497.103 157.254 497.103 157.254 494.766 157.259C493.454 157.268 493.454 157.268 492.116 157.278C490.697 157.272 490.697 157.272 489.25 157.266C488.281 157.268 487.312 157.269 486.313 157.271C484.262 157.273 482.211 157.269 480.16 157.261C477.013 157.25 473.866 157.261 470.719 157.273C468.729 157.272 466.74 157.27 464.75 157.266C463.804 157.27 462.858 157.274 461.884 157.278C461.009 157.272 460.135 157.265 459.234 157.259C458.463 157.257 457.692 157.256 456.897 157.254C455 157 455 157 453 155C452.741 153.061 452.741 153.061 452.734 150.719C452.732 149.877 452.729 149.035 452.727 148.168C452.738 146.847 452.738 146.847 452.75 145.5C452.742 144.62 452.735 143.739 452.727 142.832C452.729 141.99 452.732 141.149 452.734 140.281C452.737 139.508 452.739 138.736 452.741 137.939C453.284 133.873 455.719 133.748 459.234 133.741Z" fill="#F7F7F7"/>
<path d="M854 60C854.728 71.2282 853.213 77.9819 846.813 87.125C846.214 87.7438 845.616 88.3625 845 89C844.34 89 843.68 89 843 89C842.67 89.99 842.34 90.98 842 92C835.102 96.324 827.9 96.4886 820 96C819.42 86.6309 819.98 79.1248 825.918 71.5547C834.122 62.7555 841.957 58.9697 854 60Z" fill="#F04A5B"/>
</svg>
